{
	"asset":{
		"generator":"Khronos glTF Blender I/O v4.0.44",
		"version":"2.0"
	},
	"extensionsUsed":[
		"KHR_materials_emissive_strength"
	],
	"scene":0,
	"scenes":[
		{
			"name":"Scene",
			"nodes":[
				8
			]
		}
	],
	"nodes":[
		{
			"mesh":0,
			"name":"pc_pc_0"
		},
		{
			"mesh":1,
			"name":"pc_pc_0.001"
		},
		{
			"children":[
				0,
				1
			],
			"name":"pc"
		},
		{
			"name":"sit"
		},
		{
			"mesh":2,
			"name":"Stoo1_Stoo1_0"
		},
		{
			"children":[
				4
			],
			"name":"Stoo1"
		},
		{
			"children":[
				2,
				3,
				5
			],
			"name":"RootNode"
		},
		{
			"children":[
				6
			],
			"name":"2d798a9f9b2447059b539eeee8dc6945.fbx",
			"rotation":[
				0.70710688829422,
				0,
				0,
				0.7071066498756409
			],
			"scale":[
				0.010000000707805157,
				0.009999999776482582,
				0.010000000707805157
			]
		},
		{
			"children":[
				7
			],
			"name":"Sketchfab_model",
			"rotation":[
				-0.4514732360839844,
				0.5442168712615967,
				0.5442169308662415,
				0.45147308707237244
			],
			"scale":[
				29.999998092651367,
				30,
				30
			],
			"translation":[
				0.5821771621704102,
				-1.8607450723648071,
				-2.6079936027526855
			]
		}
	],
	"materials":[
		{
			"doubleSided":true,
			"emissiveFactor":[
				1,
				1,
				1
			],
			"emissiveTexture":{
				"index":0
			},
			"extensions":{
				"KHR_materials_emissive_strength":{
					"emissiveStrength":1.9352439641952515
				}
			},
			"name":"material_2",
			"occlusionTexture":{
				"index":1
			},
			"pbrMetallicRoughness":{
				"baseColorTexture":{
					"index":2
				},
				"metallicRoughnessTexture":{
					"index":1
				}
			}
		},
		{
			"doubleSided":true,
			"emissiveFactor":[
				1,
				1,
				1
			],
			"emissiveTexture":{
				"index":3
			},
			"extensions":{
				"KHR_materials_emissive_strength":{
					"emissiveStrength":10
				}
			},
			"name":"Stoo1",
			"occlusionTexture":{
				"index":4
			},
			"pbrMetallicRoughness":{
				"baseColorTexture":{
					"index":5
				},
				"metallicRoughnessTexture":{
					"index":4
				}
			}
		}
	],
	"meshes":[
		{
			"name":"pc_pc_0",
			"primitives":[
				{
					"attributes":{
						"POSITION":0,
						"NORMAL":1,
						"TEXCOORD_0":2
					},
					"indices":3,
					"material":0
				}
			]
		},
		{
			"name":"pc_pc_0.001",
			"primitives":[
				{
					"attributes":{
						"POSITION":4,
						"NORMAL":5,
						"TEXCOORD_0":6
					},
					"indices":7,
					"material":0
				}
			]
		},
		{
			"name":"Stoo1_Stoo1_0",
			"primitives":[
				{
					"attributes":{
						"POSITION":8,
						"NORMAL":9,
						"TEXCOORD_0":10
					},
					"indices":11,
					"material":1
				}
			]
		}
	],
	"textures":[
		{
			"sampler":0,
			"source":0
		},
		{
			"sampler":0,
			"source":1
		},
		{
			"sampler":0,
			"source":2
		},
		{
			"sampler":0,
			"source":3
		},
		{
			"sampler":0,
			"source":4
		},
		{
			"sampler":0,
			"source":5
		}
	],
	"images":[
		{
			"mimeType":"image/jpeg",
			"name":"material_2_emissive",
			"uri":"material_2_emissive.jpg"
		},
		{
			"mimeType":"image/png",
			"name":"material_2_metallicRoughness",
			"uri":"material_2_metallicRoughness.png"
		},
		{
			"mimeType":"image/png",
			"name":"material_2_baseColor",
			"uri":"material_2_baseColor.png"
		},
		{
			"mimeType":"image/jpeg",
			"name":"Stoo1_emissive",
			"uri":"Stoo1_emissive.jpg"
		},
		{
			"mimeType":"image/png",
			"name":"Stoo1_metallicRoughness",
			"uri":"Stoo1_metallicRoughness.png"
		},
		{
			"mimeType":"image/png",
			"name":"Stoo1_baseColor",
			"uri":"Stoo1_baseColor.png"
		}
	],
	"accessors":[
		{
			"bufferView":0,
			"componentType":5126,
			"count":65870,
			"max":[
				3.4629440307617188,
				8.453887939453125,
				-0.030435016378760338
			],
			"min":[
				-11.402009010314941,
				4.926558971405029,
				-13.245309829711914
			],
			"type":"VEC3"
		},
		{
			"bufferView":1,
			"componentType":5126,
			"count":65870,
			"type":"VEC3"
		},
		{
			"bufferView":2,
			"componentType":5126,
			"count":65870,
			"type":"VEC2"
		},
		{
			"bufferView":3,
			"componentType":5125,
			"count":67659,
			"type":"SCALAR"
		},
		{
			"bufferView":4,
			"componentType":5126,
			"count":12385,
			"max":[
				3.162523031234741,
				6.626495838165283,
				-2.294018030166626
			],
			"min":[
				-7.463527679443359,
				4.9261908531188965,
				-13.245309829711914
			],
			"type":"VEC3"
		},
		{
			"bufferView":5,
			"componentType":5126,
			"count":12385,
			"type":"VEC3"
		},
		{
			"bufferView":6,
			"componentType":5126,
			"count":12385,
			"type":"VEC2"
		},
		{
			"bufferView":7,
			"componentType":5123,
			"count":12459,
			"type":"SCALAR"
		},
		{
			"bufferView":8,
			"componentType":5126,
			"count":776,
			"max":[
				3.591597080230713,
				5.207067012786865,
				1.3733450174331665
			],
			"min":[
				-12.01198959350586,
				-0.13285519182682037,
				-13.202279090881348
			],
			"type":"VEC3"
		},
		{
			"bufferView":9,
			"componentType":5126,
			"count":776,
			"type":"VEC3"
		},
		{
			"bufferView":10,
			"componentType":5126,
			"count":776,
			"type":"VEC2"
		},
		{
			"bufferView":11,
			"componentType":5123,
			"count":1365,
			"type":"SCALAR"
		}
	],
	"bufferViews":[
		{
			"buffer":0,
			"byteLength":790440,
			"byteOffset":0,
			"target":34962
		},
		{
			"buffer":0,
			"byteLength":790440,
			"byteOffset":790440,
			"target":34962
		},
		{
			"buffer":0,
			"byteLength":526960,
			"byteOffset":1580880,
			"target":34962
		},
		{
			"buffer":0,
			"byteLength":270636,
			"byteOffset":2107840,
			"target":34963
		},
		{
			"buffer":0,
			"byteLength":148620,
			"byteOffset":2378476,
			"target":34962
		},
		{
			"buffer":0,
			"byteLength":148620,
			"byteOffset":2527096,
			"target":34962
		},
		{
			"buffer":0,
			"byteLength":99080,
			"byteOffset":2675716,
			"target":34962
		},
		{
			"buffer":0,
			"byteLength":24918,
			"byteOffset":2774796,
			"target":34963
		},
		{
			"buffer":0,
			"byteLength":9312,
			"byteOffset":2799716,
			"target":34962
		},
		{
			"buffer":0,
			"byteLength":9312,
			"byteOffset":2809028,
			"target":34962
		},
		{
			"buffer":0,
			"byteLength":6208,
			"byteOffset":2818340,
			"target":34962
		},
		{
			"buffer":0,
			"byteLength":2730,
			"byteOffset":2824548,
			"target":34963
		}
	],
	"samplers":[
		{
			"magFilter":9729,
			"minFilter":9987
		}
	],
	"buffers":[
		{
			"byteLength":2827280,
			"uri":"game.bin"
		}
	]
}
